<svg id="arcoiris_plus" data-name="arcoiris plus" xmlns="http://www.w3.org/2000/svg" viewBox="0 0 1228 843.81"><defs><style>.cls-1,.cls-2{fill:#30d8d4;}.cls-2{stroke:#30d8d4;stroke-miterlimit:10;stroke-width:60px;}.cls-3{fill:#fff;}.cls-4{fill:none;}</style></defs><ellipse class="cls-1" cx="396.71" cy="638.6" rx="70.29" ry="99.43"/><ellipse class="cls-1" cx="954.22" cy="567.17" rx="70.29" ry="99.43"/><path class="cls-2" d="M427.43,542.8c-16.77,35.23-31,89.66-4.24,149.67h52.66a1010.29,1010.29,0,0,0,1-105.28,1012.1,1012.1,0,0,0-9.76-103.4A247.73,247.73,0,0,0,427.43,542.8Z" transform="translate(-314.35 -51.27)"/><path class="cls-2" d="M765.25,575.31c-24.24-13.37-80-19.85-126.32,19.7C604.4,624.47,583.87,678.07,589,725.35c3,27.28,15.63,65,59.25,90l10.46,3.53c18.26,6.7,52.66,7.89,85-5.34,21.47-8.78,50.11-27.31,64.6-65.7C850.28,636.73,792.18,590.17,765.25,575.31Zm-6.47,123.52C741.19,750.12,701,790.42,676,794.51a21.51,21.51,0,0,1-3.38.28,23.41,23.41,0,0,1-16.58-7.3c-7.57-7.63-22.82-32.34-.9-96.68,22.59-66.29,64.31-102.16,90-97.39,6.62,1.23,12.32,5.22,16.49,11.55C773.69,623.34,772.64,658.42,758.78,698.83Z" transform="translate(-314.35 -51.27)"/><path class="cls-2" d="M553.52,618.17l18.15-138.83,141.65,3.8c.62,0,80-2.77,103.92-66.84.11-.28,11.28-32.07-3.82-50.66-7.33-9-19.87-13.61-37.27-13.63-6.27.4-18,2.33-26.84,10.73l-.18.16c-10.45,8.39-9.31,21-8.2,33.23,1,11.34,2,22.05-5.9,29.35h0c-43.19,39.87-119.49,38-156.17,37.07A459.27,459.27,0,0,1,483.6,450c-4.75-.22-70-2.19-109.31,46-39.61,48.54-18.28,89.53-17,91.83,3.09,4.27,12.42,15.21,19.95,16.49a6.09,6.09,0,0,0,4.56-.84c2.93-1.9,4.5-3.89,4.67-5.91.24-2.91-2.46-5.31-2.48-5.34l-.18-.16c-11.6-11.86-16.63-26.34-14.57-41.9,2.82-21.24,18.46-42.74,41.84-57.5,31.7-20,70.33-25.8,72-26l3.25-.47.29,2.93c1.12,11.35,26.48,273.17-8.19,341.58h100C568.31,794.72,537.19,734.4,553.52,618.17Z" transform="translate(-314.35 -51.27)"/><path class="cls-2" d="M981.92,543.72,983,572.46l67.52-3.61-.14,3c-3.54,76.66-21.4,119.87-21.57,120.3-10.74,21.85-23.1,33-36.83,33.2h-.43c-23.29,0-40.69-31.61-41.43-33-54.51-111-14.23-214.31-12.21-219.3,1.34-5.1,21.92-79.59,76.5-75.86,15.59,1.05,27.47,6.25,35.32,15.44,15,17.52,9.74,43.06,9.51,44.14l-.1.36c-5,13.55-4.69,23.3,1,29,9,8.89,29,5.72,32.32,5.13,31.22-17.25,23.18-53.92,18.25-68.94-2.44-7.46-41.7-48.65-95.58-57.57-49.85-8.27-96.68,12.88-139.16,62.84-.8,1-52.52,64-55.07,141-2.7,81.74,44.87,140.85,77.51,160.63,69.69,42.26,128.27,37.21,174.08-15,57.41-65.43,41-157.24,37.77-172.49Z" transform="translate(-314.35 -51.27)"/><path class="cls-2" d="M708.2,424.35l.58-.21c.62-.18,15.33-4.41,13.43-19l-.05-.38.43-2.32c-7-35.73,11.57-54,15.38-57.3,15.26-13.26,32.37-15.19,44-14.48,17.35,1.07,35.36,9.05,44.81,19.87,22.8,26.09,19.69,73.26-6.79,103-34.81,39.11-72.81,44.95-105.4,45.51-29.4.51-113-3.6-127-4.3-5.1,13.76-17.08,123.23-24.31,197.75h2.14c2.62-57.25,59.45-106.09,61.91-108.17C661.09,555.67,695.29,542.46,729,545c36.6,2.79,62.32,23.26,73.16,33.65-.87-78.37,32.7-133.39,61.55-166.09,28.69-32.51,57.62-49.42,64.69-53.28-1.22-36.67-30.78-40.72-32.06-40.88l-.38-.06-100.68-24c-5.7-1.37-11.62-3-17.88-4.81-26.3-7.42-56.1-15.83-80.67-5-69.72,30.82-45.49,95.85-45.24,96.5l1.68,4.34-5.05-.72c-17.8-2.54-33.68,12.15-33.83,12.3l-.91.85-52.09.06c-36.44-1.1-42,13.1-42.08,13.25l-.53,1.47-1.7.39c-17.95,3.74-24.36,16.53-26.33,22.05C511.38,439.24,632.84,461.18,708.2,424.35Z" transform="translate(-314.35 -51.27)"/><path class="cls-2" d="M1189.2,194.47c15.46-5,21.64-33.4,13.77-63.49-7.11-27.17-29.19-43.94-42.13-44.22-3.6,3-6.61,29.94.81,57.74C1169.14,172.52,1184.73,193.86,1189.2,194.47Z" transform="translate(-314.35 -51.27)"/><path class="cls-2" d="M1374.29,435.16c-86.62-93.2-147-82.53-147.62-82.41l-3.41.67-.31-3.12c-5.67-58.66-57-144.68-57.56-145.54l-1-1.65,4.62-4.89c-45.64-51.74-33.35-100.95-29-113.68-5.63-.56-18-.34-30.48,9.53l-.34.23-56.39,33.29c-13.78,6.52-11.86,18.2-11.77,18.69l.57,3.18-3.59,0c-.09,0-10.16.12-16.15,6-3.54,3.48-5,8.39-4.45,14.61.54,5.78,2.71,9.79,6.43,11.92,7.08,4,17.9.54,18,.51l3.24-1.07.8,3c0,.08,2.31,8.08,9.72,11.81,4.71,2.37,10.63,2.57,17.57.6l2.49-.7,1.17,2.09a633.26,633.26,0,0,1,41.3,95.41c16.6,49.41,32,119.27,11.05,171.51-10.16,25.36-28,44.59-53,57.32h52.1l.9,1.25c.41.56,8.32,11.7,10.09,29.54a196.28,196.28,0,0,1,30.13-40c22.83-23.36,62.3-51.15,120.83-51.15h.64c2.46-.11,33.42-1,69.83,25.47l.31.23.24.3c.16.2,16.37,20,32.47,14.18,2.23-1.66,15.75-12.73,6.81-30.44C1390.16,451.32,1374.44,435.32,1374.29,435.16Z" transform="translate(-314.35 -51.27)"/><path class="cls-2" d="M1303.1,487.08l-.28-.05c-.56-.12-56.78-11.28-101.44,26.81-35,29.86-55.67,85.45-50.28,135.19,3,28,15.76,66.65,59.14,91.41l.16.1,1.76,1.16c20.87,12.34,78.93,23.47,125.66-20.81,21.31-20.19,47.27-52.63,50-92.55,3.57-53.22-10-94.52-39.1-119.42C1326.72,490.16,1303.34,487.1,1303.1,487.08Zm17.42,134c-17.59,52.33-57.76,93.45-82.82,97.63a20.37,20.37,0,0,1-3.38.28,23.16,23.16,0,0,1-16.3-7.14c-7.72-7.7-23.28-32.75-1.19-98.9,22.58-67.63,64.29-104.24,90-99.37,6.52,1.24,12.16,5.21,16.3,11.49C1335.44,543.68,1334.46,579.58,1320.52,621.06Z" transform="translate(-314.35 -51.27)"/><path class="cls-2" d="M1185.71,199.07a8.16,8.16,0,0,0,3.57.9,6,6,0,0,0,1.79-.27c18.75-5.85,26.6-36.58,17.86-70-8.16-31.21-33.81-48.46-48.42-48.46a5.94,5.94,0,0,0-4.54,2.18c-6.55,7.44-6.69,38.32-.28,62.32C1162,169.42,1176,194.32,1185.71,199.07ZM1160.84,86.76c12.94.28,35,17,42.13,44.22,7.87,30.09,1.69,58.51-13.77,63.49-4.47-.61-20.06-21.95-27.55-50C1154.23,116.7,1157.24,89.77,1160.84,86.76Z" transform="translate(-314.35 -51.27)"/><path class="cls-2" d="M1306.82,513.56c-25.7-4.87-67.41,31.74-90,99.37-22.09,66.15-6.53,91.2,1.19,98.9a23.16,23.16,0,0,0,16.3,7.14,20.37,20.37,0,0,0,3.38-.28c25.06-4.18,65.23-45.3,82.82-97.63,13.94-41.48,14.92-77.38,2.6-96C1319,518.77,1313.34,514.8,1306.82,513.56Zm7.83,105.92c-17.82,53-57.48,90.37-78.07,93.81-4.92.81-9.88-1-14-5.13-5.48-5.47-21.66-28.39.13-93.65,22.5-67.39,63.25-99.28,82.86-95.57,4.86.92,9,3.92,12.29,8.91C1326.7,541.23,1330.5,572.33,1314.65,619.48Z" transform="translate(-314.35 -51.27)"/><path class="cls-2" d="M1352.62,504.7c-22.75-19.3-46.35-22.76-48.56-23.05-3.45-.66-61-11-106.9,28.21-36.27,30.95-57.71,88.39-52.16,139.7,3.17,29.23,16.47,69.51,61.86,95.46l1.86,1.22c10.2,6.06,28.74,11.88,50.61,11.88,25.78,0,56.18-8.1,82.94-33.45,22-20.85,48.83-54.43,51.62-96C1398.56,559.1,1374,522.85,1352.62,504.7Zm35.16,123.64c-2.69,39.92-28.65,72.36-50,92.55C1291.09,765.17,1233,754,1212.16,741.7l-1.76-1.16-.16-.1c-43.38-24.76-56.1-63.38-59.14-91.41-5.39-49.74,15.29-105.33,50.28-135.19,44.66-38.09,100.88-26.93,101.44-26.81l.28.05c.24,0,23.62,3.08,45.58,21.84C1377.83,533.82,1391.35,575.12,1387.78,628.34Z" transform="translate(-314.35 -51.27)"/><path class="cls-2" d="M559.6,618.84,577.1,485l136.21,3.65c.84,0,84.41-2.83,109.75-70.61.51-1.4,12.25-34.73-4.68-55.6-8.56-10.55-22.8-15.9-42.34-15.9h-.2c-7.12.43-20.59,2.62-30.89,12.35-12.62,10.22-11.29,24.81-10.12,37.69.91,10.07,1.78,19.57-4.2,25.09h0C689.32,459.79,614.84,458,579,457.06a452,452,0,0,1-94.15-12.41l-.57-.09c-.71,0-72.28-4.06-115,48.23S351.62,590,351.88,590.48l.14.22c1.25,1.74,12.49,17.07,24,19a12.64,12.64,0,0,0,9.29-1.78c4.5-2.91,6.92-6.28,7.2-10,.39-5.06-3.46-8.84-4.23-9.53-10.37-10.64-14.87-23.62-13-37.56,2.58-19.42,17.63-40,39.28-53.66,17.69-11.18,38.06-17.81,52.14-21.42-3,2.88-26.8,26.86-44.84,64.7-17.44,36.57-32.22,93.28-3.59,155.79l.79,1.7h62.56l.16-2.59A1012.74,1012.74,0,0,0,483,587a1018.14,1018.14,0,0,0-10.71-110l-.38-2.49c3.7-.86,6.74-1.47,8.83-1.85,2.85,30.62,25,283-10,339.47l-2.53,4.09H589.73l-3.33-4.31C585.94,811.3,541,751.3,559.6,618.84Zm-82.73-31.65a1010.29,1010.29,0,0,1-1,105.28H423.19c-26.76-60-12.53-114.44,4.24-149.67a247.73,247.73,0,0,1,39.68-59A1012.1,1012.1,0,0,1,476.87,587.19Zm1.49,223.52c34.67-68.41,9.31-330.23,8.19-341.58l-.29-2.93-3.25.47c-1.63.23-40.26,6-72,26-23.38,14.76-39,36.26-41.84,57.5-2.06,15.56,3,30,14.57,41.9l.18.16s2.72,2.43,2.48,5.34c-.17,2-1.74,4-4.67,5.91a6.09,6.09,0,0,1-4.56.84c-7.53-1.28-16.86-12.22-19.95-16.49-1.25-2.3-22.58-43.29,17-91.83,39.34-48.19,104.56-46.22,109.31-46a459.27,459.27,0,0,0,95.26,12.52c36.68.91,113,2.8,156.17-37.07h0c7.91-7.3,6.93-18,5.9-29.35-1.11-12.21-2.25-24.84,8.2-33.23l.18-.16c8.84-8.4,20.57-10.33,26.84-10.73,17.4,0,29.94,4.61,37.27,13.63,15.1,18.59,3.93,50.38,3.82,50.66-24,64.07-103.3,66.82-103.92,66.84l-141.65-3.8L553.52,618.17c-16.33,116.23,14.79,176.55,24.89,192.54Z" transform="translate(-314.35 -51.27)"/><path class="cls-2" d="M710.86,429.31c7-2,19.19-9.53,17.49-24.44l.46-2.49-.09-.47c-5.2-25.82,4-44.61,13.51-52.85,13.65-11.86,28.93-13.58,39.36-12.95,18.15,1.12,33.37,9.73,40.4,17.78,20.81,23.82,17.65,68.77-6.76,96.2C782,487.41,745.67,493,714.51,493.53c-31.7.54-127.53-4.34-128.5-4.39l-1.1-.06-.89.59c-2.09,1.38-5.26,3.47-16.66,105.25C561.79,644.65,557,694.48,556.92,695l-.28,3h14.82l0-2.71c.87-56.06,59.49-106.46,60.08-107,32.37-27.48,65-40.2,96.87-37.79,45.53,3.44,74.26,37.1,74.55,37.44l5.85,7-.34-8.73c-3.19-80.7,30.8-137,59.87-170,31.56-35.83,64.33-52.78,64.66-52.95l1.56-.8v-1.61c-.45-41.16-33.92-47.31-37.17-47.81L796.89,289.09c-5.56-1.34-11.42-3-17.62-4.74-27.39-7.73-58.44-16.5-85.22-4.66-64.19,28.38-53.84,84-49.57,99.26-16.46-.24-30,10.31-33.64,13.45l-49.43.06c-34.75-1-44.81,11.14-47.3,15.59-25.27,6.06-30,27.67-30.21,28.6l-.52,2.55,2.8.62C491.87,441.08,626.57,470.3,710.86,429.31ZM517,413.06l1.7-.39.53-1.47c.06-.15,5.64-14.35,42.08-13.25l52.09-.06.91-.85c.15-.15,16-14.84,33.83-12.3l5.05.72-1.68-4.34c-.25-.65-24.48-65.68,45.24-96.5,24.57-10.86,54.37-2.45,80.67,5,6.26,1.76,12.18,3.44,17.88,4.81l100.68,24,.38.06c1.28.16,30.84,4.21,32.06,40.88-7.07,3.86-36,20.77-64.69,53.28-28.85,32.7-62.42,87.72-61.55,166.09C791.35,568.29,765.63,547.82,729,545c-33.74-2.57-67.94,10.64-101.66,39.27-2.46,2.08-59.29,50.92-61.91,108.17h-2.14c7.23-74.52,19.21-184,24.31-197.75,14,.7,97.59,4.81,127,4.3,32.59-.56,70.59-6.4,105.4-45.51,26.48-29.75,29.59-76.92,6.79-103-9.45-10.82-27.46-18.8-44.81-19.87-11.66-.71-28.77,1.22-44,14.48-3.81,3.31-22.38,21.57-15.38,57.3l-.43,2.32.05.38c1.9,14.62-12.81,18.85-13.43,19l-.58.21c-75.36,36.83-196.82,14.89-217.52,10.76C492.65,429.59,499.06,416.8,517,413.06Z" transform="translate(-314.35 -51.27)"/><path class="cls-2" d="M745.08,593.42c-25.67-4.77-67.39,31.1-90,97.39-21.92,64.34-6.67,89.05.9,96.68a23.41,23.41,0,0,0,16.58,7.3,21.51,21.51,0,0,0,3.38-.28c25-4.09,65.23-44.39,82.82-95.68,13.86-40.41,14.91-75.49,2.79-93.86C757.4,598.64,751.7,594.65,745.08,593.42Zm7.85,103.8c-17.82,51.94-57.48,88.52-78.07,91.89-5,.82-10.1-1.05-14.28-5.27-5.37-5.41-21.23-28,.38-91.43,21.32-62.57,59.08-93.9,79.64-93.9a17.84,17.84,0,0,1,3.24.28c4.95.93,9.14,3.94,12.46,9C765,620.93,768.66,651.35,752.93,697.22Z" transform="translate(-314.35 -51.27)"/><path class="cls-2" d="M768.46,570.64c-25.79-14.23-84.91-21.28-133.75,20.39-35.8,30.55-57.11,86-51.82,134.85,3.09,28.55,16.42,68.09,62.32,94.29L656.42,824c9,3.3,21.17,5.36,34.9,5.36a146.82,146.82,0,0,0,55-10.8c22.57-9.23,52.67-28.69,67.86-69C857.49,634.75,796.64,586.18,768.46,570.64Zm39.88,177.23c-14.49,38.39-43.13,56.92-64.6,65.7-32.38,13.23-66.78,12-85,5.34l-10.46-3.53c-43.62-25-56.3-62.75-59.25-90C583.87,678.07,604.4,624.47,638.93,595c46.36-39.55,102.08-33.07,126.32-19.7C792.18,590.17,850.28,636.73,808.34,747.87Z" transform="translate(-314.35 -51.27)"/><path class="cls-2" d="M1115.28,536.24l-139.7,2.08,1.55,40,67-3.58c-3.82,73.78-20.87,115.13-21,115.41-9.62,19.58-20.14,29.6-31.26,29.79h-.33c-19.46,0-35.76-29.58-35.87-29.79-54.51-111.05-12.4-214.21-12-215.24l.11-.35c.2-.75,20-75.11,70.12-71.78,13.76.93,24.16,5.4,30.9,13.28,12.72,14.87,8.81,37.49,8.41,39.63-5.72,15.5-4.91,27,2.41,34.21,12.21,12,37.6,6.92,38.68,6.69l.47-.09.42-.23c35.38-19.12,26.75-59.12,21.4-75.43-3-9.05-43.8-52.06-100.35-61.42C964,350.71,915.16,372.55,871.17,424.3v0c-.54.64-53.69,65.12-56.3,144.18-2.48,75.12,38.47,140,80.2,165.34,31.91,19.35,62.08,29,89.93,29,34.82,0,66-15.08,92.39-45.14,64.31-73.29,38.71-178.23,38.45-179.28Zm-42.71,178c-45.81,52.21-104.39,57.26-174.08,15C865.85,709.51,818.28,650.4,821,568.66c2.55-77.07,54.27-140.07,55.07-141,42.48-50,89.31-71.11,139.16-62.84,53.88,8.92,93.14,50.11,95.58,57.57,4.93,15,13,51.69-18.25,68.94-3.28.59-23.31,3.76-32.32-5.13-5.74-5.66-6.09-15.41-1-29l.1-.36c.23-1.08,5.46-26.62-9.51-44.14-7.85-9.19-19.73-14.39-35.32-15.44-54.58-3.73-75.16,70.76-76.5,75.86-2,5-42.3,108.26,12.21,219.3.74,1.36,18.14,33,41.43,33H992c13.73-.23,26.09-11.35,36.83-33.2.17-.43,18-43.64,21.57-120.3l.14-3L983,572.46l-1.11-28.74,128.42-1.92C1113.58,557.05,1130,648.86,1072.57,714.29Z" transform="translate(-314.35 -51.27)"/><rect class="cls-1" x="619.57" y="375.67" width="147.41" height="276.39"/><path class="cls-3" d="M428.43,543.49c-16.77,35.23-31,89.66-4.24,149.67h52.66a1010.29,1010.29,0,0,0,1-105.28,1012.1,1012.1,0,0,0-9.76-103.4A247.73,247.73,0,0,0,428.43,543.49Z" transform="translate(-314.35 -51.27)"/><path class="cls-3" d="M766.25,576c-24.24-13.37-80-19.85-126.32,19.7C605.4,625.16,584.87,678.76,590,726c3,27.28,15.63,65,59.25,90l10.46,3.53c18.26,6.7,52.66,7.89,85-5.34,21.47-8.78,50.11-27.31,64.6-65.71C851.28,637.42,793.18,590.86,766.25,576Zm-6.47,123.52C742.19,750.81,702,791.11,677,795.2a22.77,22.77,0,0,1-3.38.28,23.41,23.41,0,0,1-16.58-7.3c-7.57-7.63-22.82-32.34-.9-96.68,22.59-66.29,64.31-102.16,90-97.39,6.62,1.23,12.32,5.22,16.49,11.55C774.69,624,773.64,659.11,759.78,699.52Z" transform="translate(-314.35 -51.27)"/><path class="cls-3" d="M554.52,618.86,572.67,480l141.65,3.8c.62,0,80-2.77,103.92-66.84.11-.29,11.28-32.07-3.82-50.66-7.33-9-19.87-13.61-37.27-13.63-6.27.4-18,2.33-26.84,10.73l-.18.16c-10.45,8.39-9.31,21-8.2,33.23,1,11.34,2,22.05-5.9,29.35h0c-43.19,39.87-119.49,38-156.17,37.07a459.27,459.27,0,0,1-95.26-12.52c-4.75-.22-70-2.19-109.31,46-39.61,48.54-18.28,89.53-17,91.83,3.09,4.27,12.42,15.21,19.95,16.49a6.05,6.05,0,0,0,4.56-.85c2.93-1.89,4.5-3.88,4.67-5.9.24-2.91-2.46-5.31-2.48-5.34l-.18-.16c-11.6-11.86-16.63-26.34-14.57-41.9,2.82-21.24,18.46-42.74,41.84-57.5,31.7-20,70.33-25.8,72-26l3.25-.48.29,2.94C488.67,481.17,514,743,479.36,811.4h100C569.31,795.41,538.19,735.09,554.52,618.86Z" transform="translate(-314.35 -51.27)"/><path class="cls-3" d="M982.92,544.41,984,573.15l67.52-3.61-.14,3c-3.54,76.66-21.4,119.87-21.57,120.3-10.74,21.85-23.1,33-36.83,33.2h-.43c-23.29,0-40.69-31.61-41.43-33-54.51-111-14.23-214.31-12.21-219.3,1.34-5.1,21.92-79.59,76.5-75.86,15.59,1.05,27.47,6.25,35.32,15.44,15,17.52,9.74,43.06,9.51,44.14l-.1.35c-5,13.56-4.69,23.31,1,29,9,8.89,29,5.72,32.32,5.13,31.22-17.25,23.18-53.92,18.25-68.94-2.44-7.46-41.7-48.65-95.58-57.57-49.85-8.27-96.68,12.88-139.16,62.84-.8,1-52.52,64-55.07,141-2.7,81.74,44.87,140.85,77.51,160.63,69.69,42.26,128.27,37.21,174.08-15,57.41-65.43,41-157.24,37.77-172.49Z" transform="translate(-314.35 -51.27)"/><path class="cls-3" d="M709.2,425l.58-.21c.62-.18,15.33-4.41,13.43-19l-.05-.38.43-2.32c-7-35.73,11.57-54,15.38-57.3,15.26-13.26,32.37-15.19,44-14.48,17.35,1.07,35.36,9.05,44.81,19.87,22.8,26.09,19.69,73.26-6.79,103-34.81,39.11-72.81,44.95-105.4,45.51-29.4.51-113-3.6-127-4.3-5.1,13.76-17.08,123.23-24.31,197.75h2.14c2.62-57.25,59.45-106.09,61.91-108.17,33.72-28.63,67.92-41.84,101.66-39.27,36.6,2.79,62.32,23.26,73.16,33.65C802.32,501,835.89,446,864.74,413.28c28.69-32.51,57.62-49.42,64.69-53.28-1.22-36.67-30.78-40.72-32.06-40.88l-.38-.06-100.68-24c-5.7-1.38-11.62-3-17.88-4.81-26.3-7.43-56.1-15.84-80.67-5-69.72,30.82-45.49,95.85-45.24,96.5l1.68,4.34-5.05-.72c-17.8-2.54-33.68,12.15-33.83,12.3l-.91.85-52.09.06c-36.44-1.1-42,13.1-42.08,13.25l-.53,1.47-1.7.39c-17.95,3.74-24.36,16.53-26.33,22.05C512.38,439.93,633.84,461.87,709.2,425Z" transform="translate(-314.35 -51.27)"/><path class="cls-3" d="M1190.2,195.16c15.46-5,21.64-33.4,13.77-63.49-7.11-27.17-29.19-43.94-42.13-44.22-3.6,3-6.61,29.94.81,57.73C1170.14,173.21,1185.73,194.55,1190.2,195.16Z" transform="translate(-314.35 -51.27)"/><path class="cls-3" d="M1375.29,435.85c-86.62-93.2-147-82.53-147.62-82.41l-3.41.67L1224,351c-5.67-58.66-57-144.68-57.56-145.54l-1-1.65,4.62-4.89c-45.64-51.74-33.35-100.95-29-113.68-5.63-.56-18-.34-30.48,9.53l-.34.23-56.39,33.29C1040,134.8,1041.93,146.48,1042,147l.57,3.18-3.59,0c-.09,0-10.16.12-16.15,6-3.54,3.48-5,8.39-4.45,14.61.54,5.78,2.71,9.79,6.43,11.92,7.08,4,17.9.54,18,.51l3.24-1.07.8,3c0,.08,2.31,8.08,9.72,11.81,4.71,2.37,10.63,2.57,17.57.6l2.49-.7,1.17,2.09a633.26,633.26,0,0,1,41.3,95.41c16.6,49.4,32,119.27,11.05,171.51-10.16,25.36-28,44.59-53,57.32h52.1l.9,1.25c.41.56,8.32,11.7,10.09,29.54a196.28,196.28,0,0,1,30.13-40c22.83-23.36,62.3-51.15,120.83-51.15h.64c2.46-.11,33.42-1,69.83,25.47l.31.23.24.3c.16.2,16.37,20,32.47,14.18,2.23-1.66,15.75-12.73,6.81-30.44C1391.16,452,1375.44,436,1375.29,435.85Z" transform="translate(-314.35 -51.27)"/><path class="cls-3" d="M1304.1,487.76l-.28,0c-.56-.12-56.78-11.29-101.44,26.81-35,29.86-55.67,85.45-50.28,135.19,3,28,15.76,66.65,59.14,91.41l.16.1,1.76,1.16c20.87,12.34,78.93,23.47,125.66-20.81,21.31-20.19,47.27-52.63,50-92.55,3.57-53.22-10-94.52-39.1-119.42C1327.72,490.85,1304.34,487.79,1304.1,487.76Zm17.42,134c-17.59,52.33-57.76,93.45-82.82,97.63a20.37,20.37,0,0,1-3.38.28,23.16,23.16,0,0,1-16.3-7.14c-7.72-7.7-23.28-32.75-1.19-98.9,22.58-67.63,64.29-104.24,90-99.37,6.52,1.24,12.16,5.21,16.3,11.49C1336.44,544.37,1335.46,580.27,1321.52,621.75Z" transform="translate(-314.35 -51.27)"/><path class="cls-4" d="M1186.71,199.76a8.16,8.16,0,0,0,3.57.9,6,6,0,0,0,1.79-.27c18.75-5.85,26.6-36.58,17.86-70C1201.77,99.21,1176.12,82,1161.51,82a5.94,5.94,0,0,0-4.54,2.18c-6.55,7.44-6.69,38.31-.28,62.32C1163,170.11,1177,195,1186.71,199.76ZM1161.84,87.45c12.94.28,35,17,42.13,44.22,7.87,30.09,1.69,58.51-13.77,63.49-4.47-.61-20.06-21.95-27.55-50C1155.23,117.39,1158.24,90.46,1161.84,87.45Z" transform="translate(-314.35 -51.27)"/><path class="cls-4" d="M1379.93,432.27c-78.59-84.57-135.86-85.9-150.19-84.64-6.61-55.7-49.67-130.72-57-143.13L1178,199l-1.6-1.77c-52.48-57.86-28.74-112.54-28.49-113.08l1.27-2.82-3.25-.85c-.81-.22-20-5-39.25,10l-55.84,33c-11.94,5.72-15,15.29-15.07,21.43-4.29.52-11.9,2.18-17.36,7.51-4.77,4.66-6.82,11-6.08,18.81.72,7.6,3.84,13,9.28,16.11,7,4,15.8,2.82,20.37,1.81a25.58,25.58,0,0,0,11.59,12.53c5.64,2.86,12.33,3.44,19.92,1.74,10.3,19.21,87.68,169,51,260.56-11.09,27.67-31.75,47.66-61.4,59.41l-13.27,5.26h76.1a64.59,64.59,0,0,1,8.45,37.46l-1.37,18.4,7.29-17.24c.11-.25,10.85-25.26,34.92-49.85,31.94-32.61,71-49.14,116.28-49.14h.72c.31,0,30.38-1.3,65.4,24,2.42,2.9,20.28,23.13,40,15.57l.65-.34c.2-.14,20.51-14.38,8.95-37.27C1396.34,449,1380.54,432.88,1379.93,432.27Zm14.78,70.7c-16.1,5.78-32.31-14-32.47-14.18l-.24-.3-.31-.23c-36.41-26.46-67.37-25.58-69.83-25.47h-.64c-58.53,0-98,27.79-120.83,51.15a196.28,196.28,0,0,0-30.13,40c-1.77-17.84-9.68-29-10.09-29.54l-.9-1.25h-52.1c25-12.73,42.84-32,53-57.32,20.95-52.24,5.55-122.11-11.05-171.51a633.26,633.26,0,0,0-41.3-95.41l-1.17-2.09-2.49.7c-6.94,2-12.86,1.77-17.57-.6-7.41-3.73-9.69-11.73-9.72-11.81l-.8-3-3.24,1.07c-.1,0-10.92,3.53-18-.51-3.72-2.13-5.89-6.14-6.43-11.92-.59-6.22.91-11.13,4.45-14.61,6-5.87,16.06-6,16.15-6l3.59,0L1042,147c-.09-.49-2-12.17,11.77-18.69L1110.18,95l.34-.23c12.53-9.87,24.85-10.09,30.48-9.53-4.33,12.73-16.62,61.94,29,113.68l-4.62,4.89,1,1.65c.52.86,51.89,86.88,57.56,145.54l.31,3.12,3.41-.67c.61-.12,61-10.79,147.62,82.41.15.16,15.87,16.16,26.23,36.68C1410.46,490.24,1396.94,501.31,1394.71,503Z" transform="translate(-314.35 -51.27)"/><path class="cls-4" d="M1307.82,514.25c-25.7-4.87-67.41,31.74-90,99.37-22.09,66.15-6.53,91.2,1.19,98.9a23.16,23.16,0,0,0,16.3,7.14,20.37,20.37,0,0,0,3.38-.28c25.06-4.18,65.23-45.3,82.82-97.63,13.94-41.48,14.92-77.38,2.6-96C1320,519.46,1314.34,515.49,1307.82,514.25Zm7.83,105.92c-17.82,53-57.48,90.37-78.07,93.81-4.92.81-9.88-1-14-5.13-5.48-5.47-21.66-28.39.13-93.65,22.5-67.39,63.25-99.28,82.86-95.58,4.86.93,9,3.93,12.29,8.92C1327.7,541.92,1331.5,573,1315.65,620.17Z" transform="translate(-314.35 -51.27)"/><path class="cls-4" d="M1353.62,505.39c-22.75-19.3-46.35-22.77-48.56-23.05-3.45-.67-61-11-106.9,28.21-36.27,30.95-57.71,88.39-52.16,139.7,3.17,29.23,16.47,69.51,61.86,95.46l1.86,1.22c10.2,6.06,28.74,11.88,50.61,11.88,25.78,0,56.18-8.1,82.94-33.45,22-20.85,48.83-54.43,51.62-96C1399.56,559.79,1375,523.54,1353.62,505.39ZM1388.78,629c-2.69,39.92-28.65,72.36-50,92.55-46.73,44.28-104.79,33.15-125.66,20.81l-1.76-1.16-.16-.1c-43.38-24.76-56.1-63.38-59.14-91.41-5.39-49.74,15.29-105.33,50.28-135.19,44.66-38.1,100.88-26.93,101.44-26.81l.28,0c.24,0,23.62,3.09,45.58,21.85C1378.83,534.51,1392.35,575.81,1388.78,629Z" transform="translate(-314.35 -51.27)"/><path class="cls-4" d="M560.6,619.53l17.5-133.86,136.21,3.65c.84,0,84.41-2.83,109.75-70.61.51-1.41,12.25-34.73-4.68-55.6-8.56-10.55-22.8-15.9-42.34-15.9h-.2c-7.12.43-20.59,2.62-30.89,12.35-12.62,10.22-11.29,24.81-10.12,37.69.91,10.07,1.78,19.57-4.2,25.09h0c-41.31,38.13-115.79,36.29-151.6,35.4a452,452,0,0,1-94.15-12.41l-.57-.09c-.71,0-72.28-4.06-115,48.23s-17.73,97.25-17.47,97.69l.14.22c1.25,1.74,12.49,17.07,24,19a12.64,12.64,0,0,0,9.29-1.78c4.5-2.91,6.92-6.28,7.2-10,.39-5.06-3.46-8.84-4.23-9.53-10.37-10.64-14.87-23.62-13-37.56,2.58-19.42,17.63-40,39.28-53.66,17.69-11.18,38.06-17.81,52.14-21.42-3,2.88-26.8,26.86-44.84,64.7-17.44,36.56-32.22,93.28-3.59,155.79l.79,1.7h62.56l.16-2.59A1012.74,1012.74,0,0,0,484,587.67a1018.14,1018.14,0,0,0-10.71-110l-.38-2.49c3.7-.86,6.74-1.47,8.83-1.85,2.85,30.62,25,283-10,339.47l-2.53,4.09H590.73l-3.33-4.31C586.94,812,542,752,560.6,619.53Zm-82.73-31.65a1010.29,1010.29,0,0,1-1,105.28H424.19c-26.76-60-12.53-114.44,4.24-149.67a247.73,247.73,0,0,1,39.68-59A1012.1,1012.1,0,0,1,477.87,587.88Zm1.49,223.52C514,743,488.67,481.17,487.55,469.82l-.29-2.94-3.25.48c-1.63.23-40.26,6-72,26-23.38,14.76-39,36.26-41.84,57.5-2.06,15.56,3,30,14.57,41.9l.18.16s2.72,2.43,2.48,5.34c-.17,2-1.74,4-4.67,5.9a6.05,6.05,0,0,1-4.56.85c-7.53-1.28-16.86-12.22-19.95-16.49-1.25-2.3-22.58-43.29,17-91.83,39.34-48.19,104.56-46.22,109.31-46a459.27,459.27,0,0,0,95.26,12.52c36.68.91,113,2.8,156.17-37.07h0c7.91-7.3,6.93-18,5.9-29.35-1.11-12.21-2.25-24.84,8.2-33.23l.18-.16c8.84-8.4,20.57-10.33,26.84-10.73,17.4,0,29.94,4.61,37.27,13.63,15.1,18.59,3.93,50.37,3.82,50.66-24,64.07-103.3,66.82-103.92,66.84L572.67,480,554.52,618.86c-16.33,116.23,14.79,176.55,24.89,192.54Z" transform="translate(-314.35 -51.27)"/><path class="cls-4" d="M711.86,430c7-2,19.19-9.53,17.49-24.44l.46-2.49-.09-.47c-5.2-25.82,4-44.61,13.51-52.85,13.65-11.86,28.93-13.58,39.36-12.95,18.15,1.12,33.37,9.73,40.4,17.78,20.81,23.82,17.65,68.77-6.76,96.2-33.22,37.32-69.56,42.9-100.72,43.44-31.7.54-127.53-4.34-128.5-4.39l-1.1-.06-.89.59c-2.09,1.38-5.26,3.47-16.66,105.25-5.57,49.73-10.39,99.56-10.44,100.06l-.28,3h14.82l0-2.71c.87-56.06,59.49-106.46,60.08-107,32.37-27.48,65-40.2,96.87-37.79,45.53,3.44,74.26,37.1,74.55,37.44l5.85,7-.34-8.73c-3.19-80.7,30.8-137,59.87-170,31.56-35.83,64.33-52.78,64.66-52.95l1.56-.8v-1.62c-.45-41.15-33.92-47.3-37.17-47.8L797.89,289.78c-5.56-1.34-11.42-3-17.62-4.74-27.39-7.73-58.44-16.5-85.22-4.66-64.19,28.38-53.84,84-49.57,99.26-16.46-.24-30,10.31-33.64,13.45l-49.43.06c-34.75-1-44.81,11.14-47.3,15.59-25.27,6.06-30,27.67-30.21,28.6l-.52,2.55,2.8.62C492.87,441.77,627.57,471,711.86,430ZM518,413.75l1.7-.39.53-1.47c.06-.15,5.64-14.35,42.08-13.25l52.09-.06.91-.85c.15-.15,16-14.84,33.83-12.3l5.05.72-1.68-4.34c-.25-.65-24.48-65.68,45.24-96.5,24.57-10.87,54.37-2.46,80.67,5,6.26,1.76,12.18,3.43,17.88,4.81l100.68,24,.38.06c1.28.16,30.84,4.21,32.06,40.88-7.07,3.86-36,20.77-64.69,53.28C835.89,446,802.32,501,803.19,579.37,792.35,569,766.63,548.51,730,545.72c-33.74-2.57-67.94,10.64-101.66,39.27-2.46,2.08-59.29,50.92-61.91,108.17h-2.14c7.23-74.52,19.21-184,24.31-197.75,14,.7,97.59,4.81,127,4.3,32.59-.56,70.59-6.4,105.4-45.51,26.48-29.75,29.59-76.92,6.79-103-9.45-10.82-27.46-18.8-44.81-19.87-11.66-.71-28.77,1.22-44,14.48-3.81,3.31-22.38,21.57-15.38,57.3l-.43,2.32.05.38c1.9,14.62-12.81,18.85-13.43,19l-.58.21c-75.36,36.83-196.82,14.89-217.52,10.76C493.65,430.28,500.06,417.49,518,413.75Z" transform="translate(-314.35 -51.27)"/><path class="cls-4" d="M746.08,594.11c-25.67-4.77-67.39,31.1-90,97.39-21.92,64.34-6.67,89,.9,96.68a23.41,23.41,0,0,0,16.58,7.3,22.77,22.77,0,0,0,3.38-.28c25-4.09,65.23-44.39,82.82-95.68,13.86-40.41,14.91-75.5,2.79-93.86C758.4,599.33,752.7,595.34,746.08,594.11Zm7.85,103.8c-17.82,51.94-57.48,88.52-78.07,91.89-5,.82-10.1-1-14.28-5.27-5.37-5.41-21.23-28,.38-91.43,21.32-62.57,59.08-93.9,79.64-93.9a17.84,17.84,0,0,1,3.24.28c4.95.92,9.14,3.94,12.46,9C766,621.62,769.66,652,753.93,697.91Z" transform="translate(-314.35 -51.27)"/><path class="cls-4" d="M769.46,571.33c-25.79-14.23-84.91-21.28-133.75,20.39-35.8,30.55-57.11,86-51.82,134.85,3.09,28.55,16.42,68.09,62.32,94.29l11.21,3.84c9,3.3,21.17,5.36,34.9,5.36a146.82,146.82,0,0,0,55-10.8c22.57-9.23,52.67-28.69,67.86-69C858.49,635.44,797.64,586.87,769.46,571.33Zm39.88,177.22c-14.49,38.4-43.13,56.93-64.6,65.71-32.38,13.23-66.78,12-85,5.34l-10.46-3.53c-43.62-25-56.3-62.75-59.25-90-5.12-47.28,15.41-100.88,49.94-130.34C686.29,556.15,742,562.63,766.25,576,793.18,590.86,851.28,637.42,809.34,748.55Z" transform="translate(-314.35 -51.27)"/><path class="cls-4" d="M1116.28,536.93,976.58,539l1.55,40,67-3.58c-3.82,73.78-20.87,115.13-21,115.41-9.62,19.58-20.14,29.6-31.26,29.79h-.33c-19.46,0-35.76-29.58-35.87-29.79-54.51-111-12.4-214.21-12-215.24l.11-.35c.2-.75,20-75.11,70.12-71.78,13.76.93,24.16,5.4,30.9,13.28,12.72,14.87,8.81,37.49,8.41,39.63-5.72,15.5-4.91,27,2.41,34.21,12.21,12,37.6,6.92,38.68,6.69l.47-.1.42-.22c35.38-19.12,26.75-59.12,21.4-75.43-3-9.05-43.8-52.06-100.35-61.42C965,351.4,916.16,373.24,872.17,425v0c-.54.64-53.69,65.11-56.3,144.18-2.48,75.12,38.47,140,80.2,165.34,31.91,19.35,62.08,29,89.93,29,34.82,0,66-15.09,92.39-45.14,64.31-73.29,38.71-178.23,38.45-179.28ZM1073.57,715c-45.81,52.21-104.39,57.26-174.08,15C866.85,710.2,819.28,651.09,822,569.35c2.55-77.07,54.27-140.07,55.07-141,42.48-50,89.31-71.11,139.16-62.84,53.88,8.92,93.14,50.11,95.58,57.57,4.93,15,13,51.69-18.25,68.94-3.28.59-23.31,3.76-32.32-5.13-5.74-5.66-6.09-15.41-1-29l.1-.35c.23-1.08,5.46-26.62-9.51-44.14C1042.91,404.2,1031,399,1015.44,398c-54.58-3.73-75.16,70.76-76.5,75.86-2,5-42.3,108.26,12.21,219.3.74,1.36,18.14,33,41.43,33H993c13.73-.23,26.09-11.35,36.83-33.2.17-.43,18-43.64,21.57-120.3l.14-3L984,573.15l-1.11-28.74,128.42-1.92C1114.58,557.74,1131,649.55,1073.57,715Z" transform="translate(-314.35 -51.27)"/><polygon class="cls-1" points="814.33 632.9 897.33 712.71 809.94 788.59 726.94 708.77 814.33 632.9"/><path class="cls-1" d="M1478.17,894.65H1168.58s-170.36,4.53-220.38-15.83c-71.31-29-131.69-148-82-151l84.83,49.73,100.24-13.4h426.85s64.18,0,64.18,65.27S1478.17,894.65,1478.17,894.65Z" transform="translate(-314.35 -51.27)"/><path class="cls-1" d="M1015.26,894.65" transform="translate(-314.35 -51.27)"/><path class="cls-3" d="M985.51,862l9.06-65h26.2q10,0,16.57,2.92a24.9,24.9,0,0,1,10.22,7.77,27.28,27.28,0,0,1,4.89,10.87,35.63,35.63,0,0,1,.45,12.1,32.83,32.83,0,0,1-4.38,13,35.91,35.91,0,0,1-8.76,9.89,39.3,39.3,0,0,1-11.79,6.27,42.33,42.33,0,0,1-13.45,2.16Zm16.32-12.36h11.88a31.17,31.17,0,0,0,9.12-1.28,22.76,22.76,0,0,0,7.36-3.76,19.44,19.44,0,0,0,5.18-6.22,24.31,24.31,0,0,0,2.62-8.62q.91-6.36-.9-10.37a14.61,14.61,0,0,0-5-6.23,20.26,20.26,0,0,0-6.7-3.05,26.14,26.14,0,0,0-6-.84h-11.89Z" transform="translate(-314.35 -51.27)"/><path class="cls-3" d="M1071.84,797h50.57L1120.8,809h-35.46l-2,14.48h31.33l-1.72,12.19h-31.33l-2,14.14h36.87L1114.76,862h-52Z" transform="translate(-314.35 -51.27)"/><path class="cls-3" d="M1139,797h14.6l-7.35,52.65h34.86L1179.43,862H1130Z" transform="translate(-314.35 -51.27)"/><path class="cls-3" d="M1203.31,797h15.11l-9.07,65h-15.11Z" transform="translate(-314.35 -51.27)"/><path class="cls-3" d="M1256.29,864.51,1232.12,797h17.52l15.12,46.82-8.26-1.5,26-45.32h17.32l-43,67.49Z" transform="translate(-314.35 -51.27)"/><path class="cls-3" d="M1312.61,797h50.57L1361.57,809h-35.46l-2,14.48h31.33l-1.71,12.19h-31.33l-2,14.14h36.87L1355.52,862h-52Z" transform="translate(-314.35 -51.27)"/><path class="cls-3" d="M1402.26,797a42.68,42.68,0,0,1,12.14,1.55,22.75,22.75,0,0,1,8.52,4.42,15.62,15.62,0,0,1,4.68,6.89,19.48,19.48,0,0,1,.65,9,28.07,28.07,0,0,1-2.51,8,24.23,24.23,0,0,1-5.44,7.24,26.55,26.55,0,0,1-8.82,5.26,36.39,36.39,0,0,1-12.74,2h-10.48L1385.34,862h-14.61l9.07-65Zm-1.91,32a13.66,13.66,0,0,0,7.15-1.64,11,11,0,0,0,4-3.88,10.6,10.6,0,0,0,1.51-4.11,9.71,9.71,0,0,0,0-2.69,9.15,9.15,0,0,0-1-3.32,6.82,6.82,0,0,0-3-2.82,12.55,12.55,0,0,0-5.94-1.15h-10.48L1390,829Zm12.59,8L1427.75,862h-17l-15.32-24.73Z" transform="translate(-314.35 -51.27)"/><path class="cls-3" d="M1456.36,841.81l-21-44.79h18l14.41,33.75-4.34.26L1487,797h18l-34,44.79L1468.15,862h-14.61Z" transform="translate(-314.35 -51.27)"/></svg>