<?xml version="1.0" standalone="no"?>
<!DOCTYPE svg PUBLIC "-//W3C//DTD SVG 20010904//EN"
 "http://www.w3.org/TR/2001/REC-SVG-20010904/DTD/svg10.dtd">
<svg version="1.0" xmlns="http://www.w3.org/2000/svg"
 width="512.000000pt" height="512.000000pt" viewBox="0 0 512.000000 512.000000"
 preserveAspectRatio="xMidYMid meet">
<metadata>
Created by potrace 1.16, written by Peter Selinger 2001-2019
</metadata>
<g transform="translate(0.000000,512.000000) scale(0.100000,-0.100000)"
fill="#000000" stroke="none">
<path d="M4060 5000 l0 -120 40 0 40 0 0 80 0 80 160 0 160 0 0 -80 0 -80 40
0 40 0 0 120 0 120 -240 0 -240 0 0 -120z"/>
<path d="M4113 4784 c-313 -68 -572 -330 -638 -644 -22 -103 -19 -276 5 -378
92 -384 421 -642 819 -642 249 0 458 90 622 268 76 82 120 154 166 265 l33 82
0 216 c0 236 -6 271 -62 384 -112 222 -307 380 -546 441 -110 28 -293 32 -399
8z m410 -105 l72 -23 -40 -5 -40 -6 3 -57 c2 -32 1 -58 -2 -58 -3 0 -31 7 -63
15 -74 19 -232 19 -307 0 -107 -28 -185 -74 -271 -160 -125 -125 -175 -246
-175 -425 0 -175 51 -300 170 -421 122 -124 253 -179 428 -179 174 0 308 55
427 175 106 105 175 255 175 379 l0 46 -45 0 -45 0 0 -44 c0 -106 -73 -253
-166 -335 -63 -55 -113 -84 -194 -111 -87 -29 -245 -25 -332 9 -125 48 -243
165 -295 291 -38 92 -44 240 -15 337 66 216 262 363 487 365 44 0 100 -5 125
-12 l45 -13 -42 -19 c-24 -10 -43 -22 -43 -27 0 -23 24 -71 35 -71 10 0 196
75 213 85 2 2 -7 82 -23 198 l-5 38 59 -31 c131 -70 238 -180 311 -321 57
-109 80 -208 80 -339 0 -177 -54 -331 -164 -472 -93 -118 -252 -220 -402 -258
-104 -27 -263 -27 -366 -1 -265 68 -481 284 -549 549 -26 102 -26 262 0 365
67 258 270 468 526 543 127 36 300 34 428 -7z"/>
<path d="M4510 4235 l-155 -155 -53 0 c-48 0 -58 -4 -88 -34 -30 -30 -34 -40
-34 -86 0 -46 4 -56 34 -86 30 -30 40 -34 86 -34 46 0 56 4 86 34 30 30 34 40
34 87 l0 54 157 157 157 157 -29 31 c-16 16 -31 30 -34 30 -4 0 -76 -70 -161
-155z"/>
<path d="M2827 4306 c-124 -45 -213 -171 -205 -293 l3 -48 378 -3 377 -2 0 40
0 40 -57 0 -58 0 -17 58 c-29 97 -101 174 -195 208 -21 7 -72 13 -113 13 -41
0 -92 -6 -113 -13z m213 -96 c59 -30 105 -84 124 -147 l7 -23 -231 0 -231 0 7
23 c43 141 197 210 324 147z"/>
<path d="M1660 3960 l0 -40 360 0 360 0 0 40 0 40 -360 0 -360 0 0 -40z"/>
<path d="M2620 3845 c0 -94 78 -208 175 -255 72 -35 189 -40 267 -10 103 38
186 144 196 251 l5 49 -47 0 c-43 0 -46 -2 -46 -25 0 -38 -27 -96 -63 -134
-88 -93 -241 -95 -331 -5 -35 35 -65 99 -66 137 0 25 -3 27 -45 27 -45 0 -45
0 -45 -35z"/>
<path d="M2517 3550 c-88 -22 -179 -90 -222 -164 -13 -23 -87 -207 -166 -411
l-142 -370 -5 -100 c-3 -84 -1 -110 18 -164 43 -128 142 -237 255 -281 l50
-19 -202 0 -203 -1 0 -39 0 -38 193 -5 c222 -6 271 -19 353 -91 43 -38 104
-119 104 -139 0 -4 -146 -8 -325 -8 l-325 0 0 -40 0 -40 334 0 334 0 6 -31 c3
-17 6 -118 6 -223 0 -127 5 -208 14 -241 49 -186 203 -335 386 -375 38 -8 140
-11 325 -8 l270 3 69 34 c120 58 237 196 286 333 60 172 47 315 -58 598 -67
180 -86 271 -87 401 0 103 1 108 36 177 l37 71 -33 26 c-19 14 -36 25 -39 25
-11 0 -59 -94 -77 -151 -37 -118 -17 -306 53 -509 86 -251 97 -288 107 -365
18 -129 -12 -247 -90 -365 -51 -76 -107 -124 -188 -163 -63 -30 -68 -31 -250
-35 -233 -5 -339 7 -427 48 -131 63 -225 194 -244 342 -5 40 -10 159 -10 264
0 161 -3 200 -19 246 -37 109 -116 201 -213 251 -29 15 -49 27 -45 27 4 0 163
-39 353 -86 319 -80 346 -89 355 -111 5 -13 9 -195 9 -404 l0 -379 40 0 40 0
0 415 0 415 -27 30 c-26 29 -53 37 -438 134 -225 57 -430 113 -453 125 -62 32
-129 102 -160 169 -24 50 -27 69 -26 157 l0 100 138 355 c76 195 144 367 152
381 45 89 133 143 234 144 86 0 295 -73 343 -121 18 -17 88 -136 157 -264 79
-148 132 -235 145 -241 11 -4 103 -20 205 -35 102 -14 198 -33 213 -41 16 -8
35 -30 43 -49 19 -46 -1 -97 -48 -119 -31 -15 -49 -14 -267 13 -178 23 -240
34 -258 49 -14 10 -91 125 -171 255 l-146 237 -36 -21 c-19 -12 -37 -23 -39
-24 -10 -8 296 -489 327 -514 44 -36 76 -43 345 -76 241 -29 267 -28 327 22
100 85 84 250 -31 310 -16 8 -116 28 -221 45 -106 17 -196 33 -199 37 -4 4
-57 102 -119 217 -62 116 -123 225 -137 242 -32 44 -87 74 -223 123 -123 44
-221 58 -293 40z"/>
<path d="M860 3360 l0 -40 120 0 120 0 0 40 0 40 -120 0 -120 0 0 -40z"/>
<path d="M1220 3360 l0 -40 340 0 340 0 0 40 0 40 -340 0 -340 0 0 -40z"/>
<path d="M267 2993 c-4 -3 -7 -165 -7 -360 l0 -353 -80 0 -80 0 0 -40 0 -40
80 0 80 0 2 -277 3 -278 755 0 755 0 0 675 0 675 -751 3 c-413 1 -754 -1 -757
-5z m555 -230 l3 -158 29 -3 c15 -2 59 4 97 13 65 16 73 16 138 0 38 -9 82
-15 97 -13 l29 3 3 158 3 157 239 0 240 0 0 -600 0 -600 -680 0 -680 0 0 240
0 240 200 0 200 0 0 40 0 40 -200 0 -200 0 0 320 0 320 240 0 239 0 3 -157z
m318 46 l0 -111 -32 9 c-18 4 -58 8 -88 8 -30 0 -70 -4 -87 -8 l-33 -9 0 111
0 111 120 0 120 0 0 -111z"/>
<path d="M2694 2886 c-52 -139 -134 -410 -134 -443 0 -82 11 -88 424 -238 221
-80 379 -143 393 -157 13 -12 27 -38 33 -57 6 -22 10 -222 10 -493 l0 -458 40
0 40 0 0 490 c0 539 1 528 -61 587 -28 26 -103 57 -404 167 -204 74 -374 141
-380 150 -7 12 8 69 58 219 37 111 67 207 67 213 0 15 -80 35 -86 20z"/>
<path d="M3992 2832 l-144 -27 7 -39 c3 -22 8 -42 11 -45 2 -3 68 7 147 21
162 29 191 26 243 -26 45 -45 52 -92 25 -150 -29 -59 -52 -72 -177 -101 -59
-13 -112 -29 -118 -35 -18 -18 -13 -376 8 -490 55 -304 186 -505 385 -585 34
-14 116 -39 183 -56 67 -17 141 -40 165 -50 67 -29 152 -86 214 -146 l58 -55
30 23 c16 13 30 29 30 35 1 14 -102 112 -159 151 -65 44 -156 87 -225 106 -33
9 -102 28 -153 42 -153 41 -223 87 -298 191 -108 151 -172 416 -162 678 l3 89
60 14 c117 25 145 36 186 71 54 46 79 101 79 175 0 126 -82 218 -206 231 -31
3 -103 -5 -192 -22z"/>
<path d="M1090 1502 c-58 -51 -120 -115 -173 -178 -17 -21 -17 -22 17 -47 l34
-27 121 121 121 121 -26 34 c-15 19 -27 34 -28 34 -1 0 -31 -26 -66 -58z"/>
<path d="M1695 1544 c-280 -60 -534 -266 -712 -578 l-48 -85 -237 -1 -238 0 0
-40 0 -40 219 0 219 0 -35 -87 c-22 -56 -36 -106 -37 -138 l-1 -50 138 -3 137
-3 0 -30 c0 -46 46 -174 84 -233 72 -112 192 -201 325 -240 72 -21 230 -21
302 0 236 69 417 299 407 516 l-3 63 -647 3 -647 2 18 53 c11 28 28 73 40 100
l20 47 91 0 90 0 0 40 0 40 -71 0 -71 0 23 38 c78 128 125 189 219 283 192
193 371 270 625 270 293 -1 466 -121 531 -371 20 -74 24 -247 10 -407 l-9
-102 36 -36 35 -35 596 0 596 0 0 40 0 40 -568 0 c-458 0 -572 3 -586 13 -18
13 -18 21 -6 132 40 370 -63 632 -294 745 -44 22 -112 47 -151 55 -91 19 -307
18 -400 -1z m-266 -1065 c15 -51 74 -117 126 -140 53 -25 157 -25 210 0 52 23
111 89 126 140 l12 41 114 0 c130 0 126 4 94 -99 -24 -76 -68 -146 -129 -203
-94 -89 -194 -128 -323 -128 -139 0 -252 51 -349 157 -57 63 -81 103 -104 182
-28 95 -32 91 97 91 l114 0 12 -41z m364 9 c-61 -104 -205 -104 -266 0 l-19
32 152 0 152 0 -19 -32z"/>
<path d="M20 1280 l0 -40 300 0 300 0 0 40 0 40 -300 0 -300 0 0 -40z"/>
<path d="M4245 1096 c-173 -56 -301 -184 -360 -359 -36 -107 -36 -247 0 -354
60 -176 182 -298 358 -358 92 -31 240 -35 328 -9 189 56 337 204 393 393 26
88 22 236 -9 328 -60 176 -182 298 -358 358 -103 34 -249 35 -352 1z m314 -85
c110 -34 214 -119 273 -221 82 -141 77 -341 -11 -479 -39 -60 -125 -142 -177
-169 -137 -69 -312 -69 -449 0 -55 29 -150 122 -184 182 -79 138 -82 317 -9
461 27 52 122 151 176 182 107 63 262 81 381 44z"/>
<path d="M4315 781 c-87 -40 -135 -120 -135 -223 1 -142 97 -238 240 -238 144
0 240 96 240 240 0 104 -53 187 -142 224 -52 22 -153 20 -203 -3z m183 -91
c130 -79 74 -280 -78 -280 -85 0 -150 65 -150 150 0 85 65 150 150 150 27 0
58 -8 78 -20z"/>
<path d="M100 840 l0 -40 120 0 120 0 0 40 0 40 -120 0 -120 0 0 -40z"/>
</g>
</svg>
