<svg id="Noborder_ungroup_copy" data-name="Noborder ungroup copy" xmlns="http://www.w3.org/2000/svg" viewBox="0 0 521.73 409.89"><defs><style>.cls-1{fill:#30d8d4;}.cls-2{fill:none;}</style></defs><path class="cls-1" d="M680.16,486.85c-8.21,19.24-15.18,49-2.08,81.74h25.79c1.06-19.08,1.23-38.42.5-57.5-.72-18.81-2.32-37.79-4.78-56.47A136.81,136.81,0,0,0,680.16,486.85Z" transform="translate(-639.47 -233.47)"/><path class="cls-1" d="M845.6,504.6c-11.86-7.3-39.16-10.84-61.86,10.76-16.91,16.09-27,45.37-24.46,71.19,1.45,14.9,7.66,35.51,29,49.17l5.12,1.93c9,3.66,25.79,4.31,41.65-2.92,10.51-4.79,24.54-14.91,31.64-35.88C887.25,538.15,858.79,512.72,845.6,504.6Zm-3.16,67.47c-8.62,28-28.29,50-40.57,52.25a9.21,9.21,0,0,1-1.65.15,10.94,10.94,0,0,1-8.12-4c-3.71-4.17-11.18-17.66-.44-52.81,11.06-36.2,31.5-55.79,44.07-53.19,3.24.67,6,2.86,8.07,6.31C849.74,530.83,849.23,550,842.44,572.07Z" transform="translate(-639.47 -233.47)"/><path class="cls-1" d="M741.91,528l8.89-75.82,69.37,2.07c.31,0,39.17-1.51,50.9-36.5,0-.16,5.52-17.52-1.87-27.67-3.59-4.93-9.73-7.43-18.26-7.44a20,20,0,0,0-13.14,5.85l-.09.09c-5.12,4.59-4.56,11.48-4,18.15.5,6.19,1,12-2.9,16h0c-21.15,21.77-58.52,20.74-76.48,20.25a202.74,202.74,0,0,1-46.65-6.84c-2.33-.12-34.27-1.2-53.53,25.12-19.41,26.51-9,48.9-8.34,50.16,1.51,2.33,6.07,8.3,9.76,9a2.71,2.71,0,0,0,2.24-.46,4.68,4.68,0,0,0,2.28-3.22,4.25,4.25,0,0,0-1.21-2.92l-.09-.09a28.7,28.7,0,0,1-7.13-22.88c1.38-11.6,9-23.34,20.49-31.41,15.52-10.94,34.44-14.09,35.24-14.22L709,445l.14,1.6c.55,6.2,13,149.2-4,186.56h49C749.15,624.44,733.91,591.49,741.91,528Z" transform="translate(-639.47 -233.47)"/><path class="cls-1" d="M951.72,487.35l.54,15.7,33.07-2-.07,1.65c-1.73,41.87-10.48,65.48-10.57,65.71-5.25,11.93-11.31,18-18,18.13h-.21c-11.41,0-19.93-17.27-20.29-18-26.7-60.64-7-117-6-119.77.66-2.78,10.73-43.47,37.46-41.43,7.64.57,13.46,3.41,17.3,8.43,7.33,9.57,4.77,23.52,4.66,24.11l-.05.19c-2.47,7.41-2.3,12.73.51,15.82,4.42,4.86,14.23,3.13,15.83,2.8,15.29-9.42,11.36-29.45,8.94-37.65-1.19-4.07-20.42-26.57-46.81-31.44-24.41-4.52-47.35,7-68.15,34.32-.39.53-25.72,34.94-27,77-1.32,44.64,22,76.93,38,87.73,34.13,23.08,62.82,20.33,85.25-8.19,28.12-35.74,20.09-85.88,18.5-94.21Z" transform="translate(-639.47 -233.47)"/><path class="cls-1" d="M817.66,422.16,818,422c.3-.1,7.51-2.41,6.58-10.39l0-.21.21-1.27c-3.42-19.51,5.67-29.49,7.53-31.29A27.56,27.56,0,0,1,853.81,371c8.5.58,17.31,4.94,21.94,10.85,11.17,14.25,9.64,40-3.32,56.26-17,21.36-35.66,24.55-51.62,24.86-14.4.27-55.36-2-62.19-2.35-2.5,7.51-8.37,67.3-11.91,108h1c1.28-31.27,29.12-57.94,30.32-59.08,16.51-15.63,33.26-22.85,49.79-21.44,17.92,1.52,30.52,12.7,35.83,18.37-.43-42.8,16-72.85,30.14-90.71s28.22-27,31.68-29.1c-.6-20-15.08-22.24-15.7-22.32l-.19,0-49.31-13.09c-2.78-.75-5.68-1.66-8.75-2.63-12.88-4.05-27.47-8.65-39.51-2.71-34.14,16.83-22.28,52.35-22.15,52.7l.82,2.37-2.48-.39c-8.71-1.39-16.49,6.64-16.56,6.72l-.45.46-25.51,0c-17.84-.6-20.58,7.15-20.61,7.23l-.26.8L724,416a17.58,17.58,0,0,0-12.89,12C721.27,430.29,780.76,442.27,817.66,422.16Z" transform="translate(-639.47 -233.47)"/><path class="cls-1" d="M1053.23,296.6c7.57-2.72,10.6-18.24,6.75-34.68-3.48-14.83-14.3-24-20.64-24.15-1.76,1.65-3.23,16.35.4,31.54S1051,296.27,1053.23,296.6Z" transform="translate(-639.47 -233.47)"/><path class="cls-1" d="M1143.88,428.06c-42.42-50.9-72-45.08-72.3-45l-1.67.36-.15-1.7c-2.78-32-27.94-79-28.19-79.49l-.49-.9,2.27-2.67c-22.35-28.26-16.33-55.14-14.21-62.09-2.76-.31-8.79-.19-14.93,5.2l-.17.13-27.61,18.18c-6.75,3.57-5.81,9.94-5.77,10.21l.28,1.74h-1.76s-5,.06-7.91,3.27c-1.73,1.9-2.47,4.58-2.18,8,.27,3.16,1.33,5.35,3.16,6.51,3.46,2.2,8.76.3,8.81.28l1.58-.59.4,1.64s1.13,4.41,4.76,6.44c2.31,1.3,5.2,1.41,8.6.34l1.22-.39.58,1.15a367.76,367.76,0,0,1,20.22,52.1c8.13,27,15.67,65.14,5.41,93.68-5,13.85-13.69,24.35-26,31.3h25.51l.44.69a37.56,37.56,0,0,1,4.94,16.13,107.07,107.07,0,0,1,14.76-21.85c11.18-12.76,30.51-27.94,59.18-27.94h.31c1.2-.06,16.37-.54,34.2,13.91l.15.13.12.16c.08.11,8,10.91,15.9,7.74,1.09-.9,7.72-6.94,3.33-16.62A89.84,89.84,0,0,0,1143.88,428.06Z" transform="translate(-639.47 -233.47)"/><path class="cls-1" d="M1109,456.41l-.14,0c-.28-.07-27.81-6.17-49.68,14.64-17.14,16.31-27.27,46.67-24.63,73.83,1.49,15.32,7.72,36.41,29,49.93l.09.06.86.63c10.22,6.74,38.65,12.82,61.54-11.37,10.44-11,23.15-28.74,24.46-50.55,1.76-29.06-4.86-51.62-19.14-65.22C1120.58,458.09,1109.13,456.43,1109,456.41Zm8.52,73.18c-8.61,28.58-28.28,51-40.56,53.32a9.21,9.21,0,0,1-1.65.15,10.81,10.81,0,0,1-8-3.89c-3.78-4.21-11.4-17.89-.59-54,11.06-36.94,31.49-56.93,44.08-54.27,3.19.67,6,2.84,8,6.27C1124.85,487.33,1124.37,506.93,1117.54,529.59Z" transform="translate(-639.47 -233.47)"/><path class="cls-2" d="M1051.52,299.11a3.65,3.65,0,0,0,1.75.49,2.7,2.7,0,0,0,.88-.14c9.18-3.2,13-20,8.75-38.22-4-17-16.56-26.47-23.72-26.47A2.79,2.79,0,0,0,1037,236c-3.21,4.07-3.28,20.93-.14,34C1039.92,282.92,1046.79,296.52,1051.52,299.11Zm-12.18-61.34c6.34.16,17.16,9.32,20.64,24.15,3.85,16.44.82,32-6.75,34.68-2.19-.33-9.82-12-13.49-27.29S1037.58,239.42,1039.34,237.77Z" transform="translate(-639.47 -233.47)"/><path class="cls-2" d="M1146.15,426.1c-38.49-46.18-66.54-46.91-73.55-46.23-3.24-30.42-24.33-71.39-27.91-78.17l2.55-3-.78-1c-25.71-31.61-14.08-61.47-14-61.77l.62-1.53-1.59-.47c-.4-.12-9.79-2.74-19.22,5.48l-27.35,18a13.3,13.3,0,0,0-7.38,11.71,14.16,14.16,0,0,0-8.5,4.1c-2.34,2.54-3.34,6-3,10.27s1.88,7.11,4.55,8.8c3.42,2.17,7.74,1.54,10,1a13.57,13.57,0,0,0,5.68,6.84,12.89,12.89,0,0,0,9.75.95c5.05,10.49,43,92.28,25,142.31-5.43,15.11-15.55,26-30.07,32.45l-6.5,2.87h37.27a38.49,38.49,0,0,1,4.14,20.46l-.67,10.05,3.57-9.42a100.88,100.88,0,0,1,17.1-27.22c15.64-17.81,34.77-26.84,57-26.84h.35c.15,0,14.88-.71,32,13.12,1.19,1.59,9.94,12.64,19.57,8.51l.32-.19c.1-.08,10-7.85,4.39-20.36A91.57,91.57,0,0,0,1146.15,426.1Zm7.24,38.61c-7.88,3.17-15.82-7.63-15.9-7.74l-.12-.16-.15-.13c-17.83-14.45-33-14-34.2-13.91h-.31c-28.67,0-48,15.18-59.18,27.94a107.07,107.07,0,0,0-14.76,21.85,37.56,37.56,0,0,0-4.94-16.13l-.44-.69H997.88c12.26-6.95,21-17.45,26-31.3,10.26-28.54,2.72-66.69-5.41-93.68a367.76,367.76,0,0,0-20.22-52.1l-.58-1.15-1.22.39c-3.4,1.07-6.29,1-8.6-.34-3.63-2-4.75-6.4-4.76-6.44l-.4-1.64-1.58.59s-5.35,1.92-8.81-.28c-1.83-1.16-2.89-3.35-3.16-6.51-.29-3.4.45-6.08,2.18-8,2.94-3.21,7.87-3.27,7.91-3.27h1.76l-.28-1.74c0-.27-1-6.64,5.77-10.21L1014,241.89l.17-.13c6.14-5.39,12.17-5.51,14.93-5.2-2.12,6.95-8.14,33.83,14.21,62.09l-2.27,2.67.49.9c.25.47,25.41,47.45,28.19,79.49l.15,1.7,1.67-.36c.3-.07,29.88-5.89,72.3,45a89.84,89.84,0,0,1,12.84,20C1161.11,457.77,1154.48,463.81,1153.39,464.71Z" transform="translate(-639.47 -233.47)"/><path class="cls-2" d="M1110.84,470.88c-12.59-2.66-33,17.33-44.08,54.27-10.81,36.13-3.19,49.81.59,54a10.81,10.81,0,0,0,8,3.89,9.21,9.21,0,0,0,1.65-.15c12.28-2.28,32-24.74,40.56-53.32,6.83-22.66,7.31-42.26,1.28-52.44C1116.79,473.72,1114,471.55,1110.84,470.88Zm3.83,57.85c-8.73,29-28.15,49.36-38.24,51.23-2.4.45-4.83-.55-6.85-2.8-2.69-3-10.62-15.5.06-51.15,11-36.8,31-54.22,40.58-52.2,2.38.51,4.4,2.14,6,4.87C1120.57,486,1122.43,503,1114.67,528.73Z" transform="translate(-639.47 -233.47)"/><path class="cls-2" d="M1133.27,466c-11.15-10.54-22.7-12.44-23.79-12.59-1.69-.36-29.86-6-52.35,15.41-17.76,16.9-28.26,48.27-25.54,76.29,1.55,16,8.06,38,30.29,52.14l.91.67c5,3.31,14.08,6.49,24.79,6.49,12.62,0,27.51-4.43,40.62-18.27,10.78-11.39,23.91-29.73,25.28-52.43C1155.77,495.75,1143.75,476,1133.27,466Zm17.21,67.52c-1.31,21.81-14,39.53-24.46,50.55-22.89,24.19-51.32,18.11-61.54,11.37l-.86-.63-.09-.06c-21.24-13.52-27.47-34.61-29-49.93-2.64-27.16,7.49-57.52,24.63-73.83,21.87-20.81,49.4-14.71,49.68-14.64l.14,0c.11,0,11.56,1.68,22.32,11.93C1145.62,481.94,1152.24,504.5,1150.48,533.56Z" transform="translate(-639.47 -233.47)"/><path class="cls-2" d="M744.89,528.38l8.57-73.11,66.71,2c.41,0,41.33-1.54,53.75-38.56.25-.77,6-19-2.29-30.37-4.19-5.76-11.17-8.68-20.74-8.68h-.1c-3.49.24-10.08,1.43-15.13,6.75C829.48,392,830.13,400,830.71,407c.44,5.5.87,10.69-2.06,13.7h0c-20.23,20.83-56.71,19.82-74.24,19.34a200.27,200.27,0,0,1-46.11-6.78l-.28-.05c-.35,0-35.4-2.22-56.3,26.34s-8.69,53.12-8.56,53.36l.07.12c.61,1,6.12,9.32,11.77,10.4a5.67,5.67,0,0,0,4.55-1c2.2-1.58,3.39-3.43,3.53-5.47a7.17,7.17,0,0,0-2.08-5.2,25.8,25.8,0,0,1-6.37-20.52c1.26-10.6,8.63-21.84,19.23-29.3,8.67-6.11,18.65-9.73,25.54-11.7a133,133,0,0,0-22,35.33c-8.54,20-15.78,50.95-1.75,85.09l.38.93h30.64l.08-1.41c1.14-19.64,1.33-39.55.58-59.2-.76-20-2.53-40.23-5.25-60.07l-.18-1.37c1.81-.47,3.3-.8,4.32-1,1.4,16.73,12.26,154.58-4.9,185.41l-1.24,2.23h59.52L758,633.82C757.79,633.49,735.77,600.72,744.89,528.38Zm-40.52-17.29c.73,19.08.56,38.42-.5,57.5H678.08c-13.1-32.77-6.13-62.5,2.08-81.74a136.81,136.81,0,0,1,19.43-32.23C702.05,473.3,703.65,492.28,704.37,511.09Zm.73,122.08c17-37.36,4.56-180.36,4-186.56L709,445l-1.59.25c-.8.13-19.72,3.28-35.24,14.22-11.45,8.07-19.11,19.81-20.49,31.41a28.7,28.7,0,0,0,7.13,22.88l.09.09a4.25,4.25,0,0,1,1.21,2.92A4.68,4.68,0,0,1,657.8,520a2.71,2.71,0,0,1-2.24.46c-3.69-.7-8.25-6.67-9.76-9-.62-1.26-11.07-23.65,8.34-50.16,19.26-26.32,51.2-25.24,53.53-25.12A202.74,202.74,0,0,0,754.32,443c18,.49,55.33,1.52,76.48-20.25h0c3.88-4,3.4-9.84,2.9-16-.55-6.67-1.11-13.56,4-18.15l.09-.09a20,20,0,0,1,13.14-5.85c8.53,0,14.67,2.51,18.26,7.44,7.39,10.15,1.92,27.51,1.87,27.67-11.73,35-50.59,36.49-50.9,36.5l-69.37-2.07L741.91,528c-8,63.48,7.24,96.43,12.19,105.16Z" transform="translate(-639.47 -233.47)"/><path class="cls-2" d="M819,424.86a12.45,12.45,0,0,0,8.56-13.34l.23-1.37,0-.25c-2.54-14.11,2-24.37,6.62-28.87A24.65,24.65,0,0,1,853.61,374c8.89.61,16.34,5.32,19.78,9.71,10.19,13,8.65,37.56-3.31,52.54-16.27,20.39-34.06,23.43-49.33,23.73-15.52.29-62.45-2.37-62.93-2.4l-.54,0-.43.32c-1,.75-2.58,1.89-8.16,57.48-2.73,27.16-5.09,54.38-5.11,54.65l-.14,1.63h7.26l0-1.48c.42-30.62,29.13-58.15,29.42-58.42,15.86-15,31.82-22,47.44-20.64,22.3,1.88,36.37,20.27,36.51,20.45l2.87,3.81-.17-4.76c-1.56-44.08,15.09-74.82,29.32-92.85,15.46-19.58,31.51-28.83,31.67-28.92l.76-.44v-.88c-.22-22.48-16.61-25.84-18.21-26.11L861.1,348.28c-2.72-.73-5.59-1.64-8.63-2.59-13.41-4.22-28.62-9-41.73-2.54-31.44,15.49-26.37,45.85-24.28,54.21-8.06-.14-14.68,5.63-16.48,7.34l-24.2,0c-17-.58-21.95,6.08-23.17,8.51-12.38,3.31-14.7,15.11-14.79,15.62l-.26,1.39,1.37.34C711.72,431.29,777.68,447.25,819,424.86ZM724,416l.83-.22.26-.8c0-.08,2.77-7.83,20.61-7.23l25.51,0,.45-.46c.07-.08,7.85-8.11,16.56-6.72l2.48.39-.82-2.37c-.13-.35-12-35.87,22.15-52.7,12-5.94,26.63-1.34,39.51,2.71,3.07,1,6,1.88,8.75,2.63l49.31,13.09.19,0c.62.08,15.1,2.29,15.7,22.32-3.46,2.11-17.63,11.35-31.68,29.1s-30.57,47.91-30.14,90.71c-5.31-5.67-17.91-16.85-35.83-18.37-16.53-1.41-33.28,5.81-49.79,21.44-1.2,1.14-29,27.81-30.32,59.08h-1c3.54-40.7,9.41-100.49,11.91-108,6.83.38,47.79,2.62,62.19,2.35,16-.31,34.57-3.5,51.62-24.86,13-16.25,14.49-42,3.32-56.26-4.63-5.91-13.44-10.27-21.94-10.85a27.56,27.56,0,0,0-21.57,7.91c-1.86,1.8-11,11.78-7.53,31.29l-.21,1.27,0,.21c.93,8-6.28,10.29-6.58,10.39l-.29.12c-36.9,20.11-96.39,8.13-106.52,5.87A17.58,17.58,0,0,1,724,416Z" transform="translate(-639.47 -233.47)"/><path class="cls-2" d="M835.73,514.49c-12.57-2.6-33,17-44.07,53.19-10.74,35.15-3.27,48.64.44,52.81a10.94,10.94,0,0,0,8.12,4,9.21,9.21,0,0,0,1.65-.15c12.28-2.23,32-24.24,40.57-52.25,6.79-22.07,7.3-41.24,1.36-51.27C841.76,517.35,839,515.16,835.73,514.49Zm3.84,56.69c-8.73,28.37-28.15,48.35-38.24,50.19-2.45.45-4.94-.57-7-2.87-2.63-3-10.39-15.3.19-49.94,10.44-34.17,28.93-51.29,39-51.29a8.08,8.08,0,0,1,1.59.16c2.42.5,4.48,2.15,6.1,4.9C845.48,529.52,847.27,546.13,839.57,571.18Z" transform="translate(-639.47 -233.47)"/><path class="cls-2" d="M847.18,502.05c-12.63-7.77-41.59-11.62-65.51,11.14-17.53,16.68-28,47-25.37,73.65,1.51,15.59,8,37.19,30.52,51.5l5.49,2.09a46.17,46.17,0,0,0,17.09,2.93,65.36,65.36,0,0,0,26.91-5.9c11.06-5,25.8-15.67,33.24-37.65C890.78,537.07,861,510.54,847.18,502.05Zm19.53,96.8c-7.1,21-21.13,31.09-31.64,35.88-15.86,7.23-32.7,6.58-41.65,2.92l-5.12-1.93c-21.36-13.66-27.57-34.27-29-49.17-2.51-25.82,7.55-55.1,24.46-71.19,22.7-21.6,50-18.06,61.86-10.76C858.79,512.72,887.25,538.15,866.71,598.85Z" transform="translate(-639.47 -233.47)"/><path class="cls-2" d="M1017,483.26l-68.42,1.14.76,21.83,32.82-2c-1.87,40.3-10.22,62.88-10.27,63-4.71,10.7-9.86,16.17-15.31,16.27h-.16c-9.53,0-17.51-16.15-17.57-16.27-26.69-60.65-6.07-117-5.86-117.55l.06-.19c.09-.41,9.8-41,34.34-39.21,6.74.51,11.83,2.95,15.13,7.25,6.23,8.12,4.32,20.48,4.12,21.65-2.8,8.46-2.4,14.75,1.18,18.69,6,6.56,18.42,3.77,18.94,3.65l.23-.06.21-.12c17.33-10.44,13.1-32.29,10.48-41.2-1.45-4.94-21.45-28.43-49.14-33.54-25.63-4.74-49.55,7.19-71.09,35.46h0c-.26.35-26.29,35.56-27.57,78.74-1.21,41,18.84,76.49,39.28,90.31,15.62,10.56,30.4,15.83,44,15.83,17,0,32.33-8.24,45.25-24.66,31.5-40,19-97.34,18.83-97.91Zm-20.92,97.25C973.68,609,945,611.78,910.86,588.7c-16-10.8-39.28-43.09-38-87.73,1.25-42.09,26.58-76.5,27-77,20.8-27.29,43.74-38.84,68.15-34.32,26.39,4.87,45.62,27.37,46.81,31.44,2.42,8.2,6.35,28.23-8.94,37.65-1.6.33-11.41,2.06-15.83-2.8-2.81-3.09-3-8.41-.51-15.82l.05-.19c.11-.59,2.67-14.54-4.66-24.11-3.84-5-9.66-7.86-17.3-8.43-26.73-2-36.8,38.65-37.46,41.43-1,2.73-20.72,59.13,6,119.77.36.74,8.88,18,20.29,18h.21c6.72-.12,12.78-6.2,18-18.13.09-.23,8.84-23.84,10.57-65.71l.07-1.65-33.07,2-.54-15.7,62.89-1.05C1016.2,494.63,1024.23,544.77,996.11,580.51Z" transform="translate(-639.47 -233.47)"/></svg>